<mxfile host="app.diagrams.net" agent="Mozilla/5.0 (X11; Ubuntu; Linux x86_64; rv:132.0) Gecko/20100101 Firefox/132.0" version="26.0.9">
  <diagram name="Pagina-1" id="Ij_V2FIz-frPNpDOWk_O">
    <mxGraphModel dx="1354" dy="519" grid="1" gridSize="10" guides="1" tooltips="1" connect="1" arrows="1" fold="1" page="1" pageScale="1" pageWidth="827" pageHeight="1169" math="0" shadow="0">
      <root>
        <mxCell id="0" />
        <mxCell id="1" parent="0" />
        <mxCell id="bYvf-1t2gTGNEuejcv_e-25" style="edgeStyle=orthogonalEdgeStyle;rounded=0;orthogonalLoop=1;jettySize=auto;html=1;" parent="1" source="bYvf-1t2gTGNEuejcv_e-1" target="bYvf-1t2gTGNEuejcv_e-3" edge="1">
          <mxGeometry relative="1" as="geometry" />
        </mxCell>
        <mxCell id="bYvf-1t2gTGNEuejcv_e-1" value="START" style="ellipse;whiteSpace=wrap;html=1;" parent="1" vertex="1">
          <mxGeometry x="360" y="40" width="120" height="80" as="geometry" />
        </mxCell>
        <mxCell id="bYvf-1t2gTGNEuejcv_e-24" style="edgeStyle=orthogonalEdgeStyle;rounded=0;orthogonalLoop=1;jettySize=auto;html=1;" parent="1" source="bYvf-1t2gTGNEuejcv_e-2" target="bYvf-1t2gTGNEuejcv_e-4" edge="1">
          <mxGeometry relative="1" as="geometry" />
        </mxCell>
        <mxCell id="bYvf-1t2gTGNEuejcv_e-2" value="Read input" style="shape=parallelogram;perimeter=parallelogramPerimeter;whiteSpace=wrap;html=1;fixedSize=1;" parent="1" vertex="1">
          <mxGeometry x="360" y="460" width="120" height="60" as="geometry" />
        </mxCell>
        <mxCell id="bYvf-1t2gTGNEuejcv_e-22" style="edgeStyle=orthogonalEdgeStyle;rounded=0;orthogonalLoop=1;jettySize=auto;html=1;entryX=0.5;entryY=0;entryDx=0;entryDy=0;" parent="1" source="bYvf-1t2gTGNEuejcv_e-3" target="bYvf-1t2gTGNEuejcv_e-5" edge="1">
          <mxGeometry relative="1" as="geometry" />
        </mxCell>
        <mxCell id="bYvf-1t2gTGNEuejcv_e-3" value="sum = 0" style="rounded=0;whiteSpace=wrap;html=1;" parent="1" vertex="1">
          <mxGeometry x="360" y="160" width="120" height="60" as="geometry" />
        </mxCell>
        <mxCell id="bYvf-1t2gTGNEuejcv_e-18" style="edgeStyle=orthogonalEdgeStyle;rounded=0;orthogonalLoop=1;jettySize=auto;html=1;" parent="1" source="bYvf-1t2gTGNEuejcv_e-4" target="bYvf-1t2gTGNEuejcv_e-14" edge="1">
          <mxGeometry relative="1" as="geometry" />
        </mxCell>
        <mxCell id="bYvf-1t2gTGNEuejcv_e-19" value="TRUE" style="edgeLabel;html=1;align=center;verticalAlign=middle;resizable=0;points=[];" parent="bYvf-1t2gTGNEuejcv_e-18" vertex="1" connectable="0">
          <mxGeometry x="-0.1458" y="4" relative="1" as="geometry">
            <mxPoint y="4" as="offset" />
          </mxGeometry>
        </mxCell>
        <mxCell id="bYvf-1t2gTGNEuejcv_e-26" style="edgeStyle=orthogonalEdgeStyle;rounded=0;orthogonalLoop=1;jettySize=auto;html=1;" parent="1" source="bYvf-1t2gTGNEuejcv_e-4" edge="1">
          <mxGeometry relative="1" as="geometry">
            <mxPoint x="420" y="690" as="targetPoint" />
          </mxGeometry>
        </mxCell>
        <mxCell id="bYvf-1t2gTGNEuejcv_e-27" value="FALSE" style="edgeLabel;html=1;align=center;verticalAlign=middle;resizable=0;points=[];" parent="bYvf-1t2gTGNEuejcv_e-26" vertex="1" connectable="0">
          <mxGeometry x="-0.2397" relative="1" as="geometry">
            <mxPoint as="offset" />
          </mxGeometry>
        </mxCell>
        <mxCell id="bYvf-1t2gTGNEuejcv_e-4" value="input == &quot;SI&quot;" style="rhombus;whiteSpace=wrap;html=1;" parent="1" vertex="1">
          <mxGeometry x="350" y="550" width="140" height="80" as="geometry" />
        </mxCell>
        <mxCell id="bM-m1AZlLLKcVE2zkrly-11" style="edgeStyle=orthogonalEdgeStyle;rounded=0;orthogonalLoop=1;jettySize=auto;html=1;" edge="1" parent="1" source="bYvf-1t2gTGNEuejcv_e-5" target="bM-m1AZlLLKcVE2zkrly-10">
          <mxGeometry relative="1" as="geometry" />
        </mxCell>
        <mxCell id="bYvf-1t2gTGNEuejcv_e-5" value="c = 0" style="rounded=0;whiteSpace=wrap;html=1;" parent="1" vertex="1">
          <mxGeometry x="360" y="260" width="120" height="60" as="geometry" />
        </mxCell>
        <mxCell id="bYvf-1t2gTGNEuejcv_e-12" style="edgeStyle=orthogonalEdgeStyle;rounded=0;orthogonalLoop=1;jettySize=auto;html=1;" parent="1" source="bYvf-1t2gTGNEuejcv_e-6" edge="1">
          <mxGeometry relative="1" as="geometry">
            <mxPoint x="1110" y="590" as="targetPoint" />
          </mxGeometry>
        </mxCell>
        <mxCell id="bYvf-1t2gTGNEuejcv_e-6" value="c++" style="rounded=0;whiteSpace=wrap;html=1;" parent="1" vertex="1">
          <mxGeometry x="950" y="560" width="120" height="60" as="geometry" />
        </mxCell>
        <mxCell id="bM-m1AZlLLKcVE2zkrly-9" style="edgeStyle=orthogonalEdgeStyle;rounded=0;orthogonalLoop=1;jettySize=auto;html=1;entryX=1;entryY=0.5;entryDx=0;entryDy=0;" edge="1" parent="1" source="bYvf-1t2gTGNEuejcv_e-13" target="bM-m1AZlLLKcVE2zkrly-10">
          <mxGeometry relative="1" as="geometry">
            <mxPoint x="805" y="390" as="targetPoint" />
            <Array as="points">
              <mxPoint x="1160" y="390" />
            </Array>
          </mxGeometry>
        </mxCell>
        <mxCell id="bYvf-1t2gTGNEuejcv_e-13" value="sum += n" style="rounded=0;whiteSpace=wrap;html=1;" parent="1" vertex="1">
          <mxGeometry x="1110" y="560" width="120" height="60" as="geometry" />
        </mxCell>
        <mxCell id="bYvf-1t2gTGNEuejcv_e-14" value="Read n" style="shape=parallelogram;perimeter=parallelogramPerimeter;whiteSpace=wrap;html=1;fixedSize=1;" parent="1" vertex="1">
          <mxGeometry x="560" y="560" width="120" height="60" as="geometry" />
        </mxCell>
        <mxCell id="bYvf-1t2gTGNEuejcv_e-31" style="edgeStyle=orthogonalEdgeStyle;rounded=0;orthogonalLoop=1;jettySize=auto;html=1;entryX=0;entryY=0.5;entryDx=0;entryDy=0;" parent="1" source="bYvf-1t2gTGNEuejcv_e-28" edge="1">
          <mxGeometry relative="1" as="geometry">
            <mxPoint x="560" y="730" as="targetPoint" />
          </mxGeometry>
        </mxCell>
        <mxCell id="bYvf-1t2gTGNEuejcv_e-32" value="TRUE" style="edgeLabel;html=1;align=center;verticalAlign=middle;resizable=0;points=[];" parent="bYvf-1t2gTGNEuejcv_e-31" vertex="1" connectable="0">
          <mxGeometry x="-0.2571" y="-3" relative="1" as="geometry">
            <mxPoint x="4" y="-3" as="offset" />
          </mxGeometry>
        </mxCell>
        <mxCell id="bM-m1AZlLLKcVE2zkrly-13" style="edgeStyle=orthogonalEdgeStyle;rounded=0;orthogonalLoop=1;jettySize=auto;html=1;entryX=0;entryY=0.5;entryDx=0;entryDy=0;" edge="1" parent="1" source="bYvf-1t2gTGNEuejcv_e-28" target="bM-m1AZlLLKcVE2zkrly-10">
          <mxGeometry relative="1" as="geometry">
            <mxPoint x="230" y="390" as="targetPoint" />
            <Array as="points">
              <mxPoint x="231" y="730" />
              <mxPoint x="231" y="390" />
            </Array>
          </mxGeometry>
        </mxCell>
        <mxCell id="bM-m1AZlLLKcVE2zkrly-14" value="FALSE" style="edgeLabel;html=1;align=center;verticalAlign=middle;resizable=0;points=[];" vertex="1" connectable="0" parent="bM-m1AZlLLKcVE2zkrly-13">
          <mxGeometry x="-0.8261" y="1" relative="1" as="geometry">
            <mxPoint as="offset" />
          </mxGeometry>
        </mxCell>
        <mxCell id="bYvf-1t2gTGNEuejcv_e-28" value="input == &quot;NO&quot;" style="rhombus;whiteSpace=wrap;html=1;" parent="1" vertex="1">
          <mxGeometry x="350" y="690" width="140" height="80" as="geometry" />
        </mxCell>
        <mxCell id="bYvf-1t2gTGNEuejcv_e-36" style="edgeStyle=orthogonalEdgeStyle;rounded=0;orthogonalLoop=1;jettySize=auto;html=1;entryX=0;entryY=0.5;entryDx=0;entryDy=0;" parent="1" source="bYvf-1t2gTGNEuejcv_e-33" target="bYvf-1t2gTGNEuejcv_e-35" edge="1">
          <mxGeometry relative="1" as="geometry" />
        </mxCell>
        <mxCell id="bYvf-1t2gTGNEuejcv_e-33" value="Write media/c" style="shape=parallelogram;perimeter=parallelogramPerimeter;whiteSpace=wrap;html=1;fixedSize=1;" parent="1" vertex="1">
          <mxGeometry x="550" y="700" width="120" height="60" as="geometry" />
        </mxCell>
        <mxCell id="bYvf-1t2gTGNEuejcv_e-35" value="END" style="ellipse;whiteSpace=wrap;html=1;" parent="1" vertex="1">
          <mxGeometry x="720" y="690" width="120" height="80" as="geometry" />
        </mxCell>
        <mxCell id="bM-m1AZlLLKcVE2zkrly-3" style="edgeStyle=orthogonalEdgeStyle;rounded=0;orthogonalLoop=1;jettySize=auto;html=1;entryX=0;entryY=0.5;entryDx=0;entryDy=0;" edge="1" parent="1" source="bM-m1AZlLLKcVE2zkrly-1" target="bYvf-1t2gTGNEuejcv_e-6">
          <mxGeometry relative="1" as="geometry" />
        </mxCell>
        <mxCell id="bM-m1AZlLLKcVE2zkrly-4" value="TRUE" style="edgeLabel;html=1;align=center;verticalAlign=middle;resizable=0;points=[];" vertex="1" connectable="0" parent="bM-m1AZlLLKcVE2zkrly-3">
          <mxGeometry x="-0.3111" y="-4" relative="1" as="geometry">
            <mxPoint x="9" y="-4" as="offset" />
          </mxGeometry>
        </mxCell>
        <mxCell id="bM-m1AZlLLKcVE2zkrly-16" style="edgeStyle=orthogonalEdgeStyle;rounded=0;orthogonalLoop=1;jettySize=auto;html=1;entryX=0.583;entryY=0;entryDx=0;entryDy=0;entryPerimeter=0;" edge="1" parent="1" source="bM-m1AZlLLKcVE2zkrly-1" target="bYvf-1t2gTGNEuejcv_e-14">
          <mxGeometry relative="1" as="geometry">
            <mxPoint x="630" y="480" as="targetPoint" />
            <Array as="points">
              <mxPoint x="790" y="470" />
              <mxPoint x="631" y="470" />
            </Array>
          </mxGeometry>
        </mxCell>
        <mxCell id="bM-m1AZlLLKcVE2zkrly-17" value="FALSE" style="edgeLabel;html=1;align=center;verticalAlign=middle;resizable=0;points=[];" vertex="1" connectable="0" parent="bM-m1AZlLLKcVE2zkrly-16">
          <mxGeometry x="-0.8176" y="-2" relative="1" as="geometry">
            <mxPoint as="offset" />
          </mxGeometry>
        </mxCell>
        <mxCell id="bM-m1AZlLLKcVE2zkrly-1" value="n &amp;gt;= 0" style="rhombus;whiteSpace=wrap;html=1;" vertex="1" parent="1">
          <mxGeometry x="720" y="550" width="140" height="80" as="geometry" />
        </mxCell>
        <mxCell id="bM-m1AZlLLKcVE2zkrly-2" style="edgeStyle=orthogonalEdgeStyle;rounded=0;orthogonalLoop=1;jettySize=auto;html=1;entryX=0.071;entryY=0.5;entryDx=0;entryDy=0;entryPerimeter=0;" edge="1" parent="1" source="bYvf-1t2gTGNEuejcv_e-14" target="bM-m1AZlLLKcVE2zkrly-1">
          <mxGeometry relative="1" as="geometry" />
        </mxCell>
        <mxCell id="bM-m1AZlLLKcVE2zkrly-12" style="edgeStyle=orthogonalEdgeStyle;rounded=0;orthogonalLoop=1;jettySize=auto;html=1;" edge="1" parent="1" source="bM-m1AZlLLKcVE2zkrly-10" target="bYvf-1t2gTGNEuejcv_e-2">
          <mxGeometry relative="1" as="geometry" />
        </mxCell>
        <mxCell id="bM-m1AZlLLKcVE2zkrly-10" value="&lt;div&gt;Write &quot;Vuoi inserire&lt;/div&gt;&lt;div&gt;&amp;nbsp;un voto?&quot;&lt;/div&gt;" style="shape=parallelogram;perimeter=parallelogramPerimeter;whiteSpace=wrap;html=1;fixedSize=1;" vertex="1" parent="1">
          <mxGeometry x="360" y="360" width="120" height="60" as="geometry" />
        </mxCell>
      </root>
    </mxGraphModel>
  </diagram>
</mxfile>
